<svg width="53" height="52" viewBox="0 0 53 52" fill="none" xmlns="http://www.w3.org/2000/svg">
<path d="M33.1667 14H19.8333C16.8878 14 14.5 16.3878 14.5 19.3333V32.6667C14.5 35.6122 16.8878 38 19.8333 38H33.1667C36.1122 38 38.5 35.6122 38.5 32.6667V19.3333C38.5 16.3878 36.1122 14 33.1667 14Z" stroke="currentColor" stroke-width="2" stroke-linejoin="round"/>
<path d="M26.5013 31.3332C29.4468 31.3332 31.8346 28.9454 31.8346 25.9998C31.8346 23.0543 29.4468 20.6665 26.5013 20.6665C23.5558 20.6665 21.168 23.0543 21.168 25.9998C21.168 28.9454 23.5558 31.3332 26.5013 31.3332Z" stroke="currentColor" stroke-width="2" stroke-linejoin="round"/>
<path d="M34.8333 18.6668C34.8333 19.2191 34.3856 19.6668 33.8333 19.6668C33.281 19.6668 32.8333 19.2191 32.8333 18.6668C32.8333 18.1145 33.281 17.6668 33.8333 17.6668C34.3856 17.6668 34.8333 18.1145 34.8333 18.6668Z" fill="currentColor" stroke="currentColor" stroke-width="0.666667"/>
<rect x="1.5" y="1" width="50" height="50" rx="25" stroke="currentColor" stroke-width="2"/>
</svg>
