<svg width="157" height="49" viewBox="0 0 157 49" fill="none" xmlns="http://www.w3.org/2000/svg">
<path d="M74.3607 26.6572V14.6699H79.5667C80.3201 14.6699 80.9766 14.8011 81.536 15.0637C82.0954 15.3263 82.5292 15.6973 82.8375 16.1768C83.1457 16.6563 83.2999 17.2215 83.2999 17.8722V18.0777C83.2999 18.7969 83.1286 19.3792 82.7861 19.8244C82.4436 20.2697 82.0212 20.595 81.5189 20.8005V21.1088C81.9755 21.1316 82.3295 21.2914 82.5806 21.5883C82.8318 21.8737 82.9574 22.2561 82.9574 22.7356V26.6572H80.6969V23.061C80.6969 22.787 80.6227 22.5644 80.4743 22.3931C80.3373 22.2219 80.1032 22.1363 79.7722 22.1363H76.6212V26.6572H74.3607ZM76.6212 20.0813H79.3269C79.8635 20.0813 80.2802 19.9386 80.577 19.6532C80.8853 19.3563 81.0394 18.9682 81.0394 18.4887V18.3174C81.0394 17.8379 80.891 17.4555 80.5941 17.1701C80.2973 16.8732 79.8749 16.7248 79.3269 16.7248H76.6212V20.0813ZM85.1808 26.6572V14.6699H92.887V16.7248H87.4413V19.5847H92.4075V21.6397H87.4413V24.6022H92.9897V26.6572H85.1808ZM94.663 26.6572V14.6699H98.9613L101.342 25.116H101.65V14.6699H103.876V26.6572H99.5778L97.1975 16.2111H96.8892V26.6572H94.663ZM108.909 26.6572V16.7248H105.416V14.6699H114.663V16.7248H111.17V26.6572H108.909ZM114.277 26.6572L117.428 14.6699H121.367L124.518 26.6572H122.189L121.538 24.02H117.257L116.606 26.6572H114.277ZM117.788 21.9308H121.007L119.551 16.0912H119.243L117.788 21.9308ZM125.953 26.6572V14.6699H130.885C131.638 14.6699 132.3 14.824 132.871 15.1322C133.453 15.4291 133.904 15.8515 134.224 16.3995C134.555 16.9475 134.72 17.5982 134.72 18.3517V18.5914C134.72 19.3335 134.549 19.9843 134.207 20.5437C133.876 21.0917 133.419 21.5198 132.837 21.828C132.266 22.1249 131.615 22.2733 130.885 22.2733H128.213V26.6572H125.953ZM128.213 20.2183H130.662C131.198 20.2183 131.632 20.0699 131.963 19.773C132.294 19.4762 132.46 19.0709 132.46 18.5572V18.3859C132.46 17.8722 132.294 17.4669 131.963 17.1701C131.632 16.8732 131.198 16.7248 130.662 16.7248H128.213V20.2183ZM136.288 26.6572V14.6699H141.22C141.973 14.6699 142.635 14.824 143.206 15.1322C143.788 15.4291 144.239 15.8515 144.559 16.3995C144.89 16.9475 145.056 17.5982 145.056 18.3517V18.5914C145.056 19.3335 144.884 19.9843 144.542 20.5437C144.211 21.0917 143.754 21.5198 143.172 21.828C142.601 22.1249 141.95 22.2733 141.22 22.2733H138.548V26.6572H136.288ZM138.548 20.2183H140.997C141.534 20.2183 141.967 20.0699 142.298 19.773C142.63 19.4762 142.795 19.0709 142.795 18.5572V18.3859C142.795 17.8722 142.63 17.4669 142.298 17.1701C141.967 16.8732 141.534 16.7248 140.997 16.7248H138.548V20.2183ZM150.784 26.897C149.859 26.897 149.043 26.7314 148.335 26.4004C147.627 26.0693 147.074 25.5955 146.674 24.979C146.275 24.3625 146.075 23.6204 146.075 22.7528V22.2733H148.301V22.7528C148.301 23.472 148.524 24.0143 148.969 24.3796C149.414 24.7335 150.019 24.9105 150.784 24.9105C151.56 24.9105 152.137 24.7564 152.514 24.4481C152.902 24.1399 153.096 23.746 153.096 23.2665C153.096 22.9354 152.999 22.6671 152.805 22.4616C152.622 22.2561 152.348 22.0906 151.983 21.965C151.629 21.828 151.195 21.7024 150.681 21.5883L150.287 21.5027C149.465 21.32 148.758 21.0917 148.164 20.8177C147.582 20.5322 147.131 20.1612 146.811 19.7045C146.503 19.2479 146.349 18.6542 146.349 17.9236C146.349 17.1929 146.52 16.5707 146.863 16.057C147.216 15.5318 147.707 15.1322 148.335 14.8582C148.975 14.5728 149.722 14.4301 150.579 14.4301C151.435 14.4301 152.194 14.5785 152.856 14.8754C153.53 15.1608 154.055 15.5946 154.432 16.1768C154.82 16.7477 155.014 17.4669 155.014 18.3346V18.8483H152.788V18.3346C152.788 17.8779 152.696 17.5126 152.514 17.2386C152.342 16.9532 152.091 16.7477 151.76 16.6221C151.429 16.4851 151.035 16.4166 150.579 16.4166C149.894 16.4166 149.386 16.5479 149.054 16.8105C148.735 17.0616 148.575 17.4098 148.575 17.8551C148.575 18.1519 148.649 18.4031 148.798 18.6086C148.957 18.8141 149.191 18.9853 149.5 19.1223C149.808 19.2593 150.202 19.3792 150.681 19.4819L151.075 19.5676C151.931 19.7502 152.674 19.9843 153.301 20.2697C153.941 20.5551 154.437 20.9318 154.791 21.3999C155.145 21.868 155.322 22.4674 155.322 23.198C155.322 23.9287 155.134 24.5737 154.757 25.1331C154.392 25.6811 153.867 26.1149 153.182 26.4346C152.508 26.7429 151.709 26.897 150.784 26.897Z" fill="#F2F2F2"/>
<path fill-rule="evenodd" clip-rule="evenodd" d="M61.5227 4.28418C61.5227 5.19454 60.7892 5.9186 59.9014 5.9186C59.4033 5.9186 58.9537 5.69062 58.655 5.32966C58.6531 5.32628 58.6511 5.3229 58.6491 5.31954C58.6097 5.25364 58.5655 5.19241 58.5172 5.13601C58.367 4.88875 58.2802 4.5975 58.2802 4.28418C58.2802 3.37383 59.0137 2.64977 59.9014 2.64977C60.7892 2.64977 61.5227 3.37383 61.5227 4.28418ZM64.1725 4.28418C64.1725 6.65027 62.2603 8.56837 59.9014 8.56837C58.918 8.56837 58.0122 8.23495 57.2902 7.67467L37.0313 19.7778H60.7488C61.3039 18.058 62.9137 16.8145 64.813 16.8145C67.1719 16.8145 69.0841 18.7325 69.0841 21.0986C69.0841 23.4647 67.1719 25.3828 64.813 25.3828C62.9166 25.3828 61.3089 24.1431 60.7514 22.4275H35.2419L43.2438 31.1582C43.7385 30.9573 44.2792 30.8467 44.8457 30.8467C47.2046 30.8467 49.1168 32.7648 49.1168 35.1309C49.1168 37.497 47.2046 39.4151 44.8457 39.4151C42.4869 39.4151 40.5747 37.497 40.5747 35.1309C40.5747 34.3007 40.8101 33.5256 41.2177 32.8692L32.182 23.0107L12.3314 42.5792C12.6391 43.171 12.8131 43.8439 12.8131 44.5576C12.8131 46.9237 10.9009 48.8418 8.54203 48.8418C6.1832 48.8418 4.271 46.9237 4.271 44.5576C4.271 42.1915 6.1832 40.2734 8.54203 40.2734C9.22493 40.2734 9.87039 40.4342 10.4429 40.7201L28.9992 22.4275H18.0494C17.4919 24.1431 15.8842 25.3828 13.9878 25.3828C11.629 25.3828 9.7168 23.4647 9.7168 21.0986C9.7168 18.7325 11.629 16.8145 13.9878 16.8145C15.8872 16.8145 17.4969 18.058 18.052 19.7778H27.3991L6.92912 7.63779C6.19967 8.2203 5.27587 8.56837 4.27103 8.56837C1.91221 8.56837 0 6.65028 0 4.28419C0 1.9181 1.91221 2.02262e-06 4.27103 2.02262e-06C6.62986 2.02262e-06 8.54206 1.9181 8.54206 4.28419C8.54206 4.67856 8.48894 5.06049 8.38948 5.42316L31.7854 19.2984L38.4694 8.44336C37.7237 7.67207 37.2647 6.62031 37.2647 5.46101C37.2647 3.09492 39.1769 1.17682 41.5357 1.17682C43.8945 1.17682 45.8067 3.09492 45.8067 5.46101C45.8067 7.8271 43.8945 9.74519 41.5357 9.74519C41.2907 9.74519 41.0506 9.7245 40.8169 9.68477L36.195 17.1908L55.7987 5.47908C55.6891 5.09982 55.6304 4.69888 55.6304 4.28418C55.6304 1.91809 57.5426 0 59.9014 0C62.2603 0 64.1725 1.91809 64.1725 4.28418ZM43.157 5.46101C43.157 6.37136 42.4234 7.09542 41.5357 7.09542C40.648 7.09542 39.9144 6.37136 39.9144 5.46101C39.9144 4.55065 40.648 3.82659 41.5357 3.82659C42.4234 3.82659 43.157 4.55065 43.157 5.46101ZM64.813 22.7331C65.7007 22.7331 66.4343 22.009 66.4343 21.0986C66.4343 20.1883 65.7007 19.4642 64.813 19.4642C63.9253 19.4642 63.1918 20.1883 63.1918 21.0986C63.1918 22.009 63.9253 22.7331 64.813 22.7331ZM46.467 35.1309C46.467 36.0412 45.7335 36.7653 44.8457 36.7653C43.958 36.7653 43.2245 36.0412 43.2245 35.1309C43.2245 34.2205 43.958 33.4964 44.8457 33.4964C45.7335 33.4964 46.467 34.2205 46.467 35.1309ZM8.54203 46.192C9.42975 46.192 10.1633 45.468 10.1633 44.5576C10.1633 43.6473 9.42975 42.9232 8.54203 42.9232C7.6543 42.9232 6.92076 43.6473 6.92076 44.5576C6.92076 45.468 7.6543 46.192 8.54203 46.192ZM15.6091 21.0986C15.6091 22.009 14.8756 22.7331 13.9878 22.7331C13.1001 22.7331 12.3666 22.009 12.3666 21.0986C12.3666 20.1883 13.1001 19.4642 13.9878 19.4642C14.8756 19.4642 15.6091 20.1883 15.6091 21.0986ZM4.27103 5.9186C5.15876 5.9186 5.8923 5.19454 5.8923 4.28419C5.8923 3.37383 5.15876 2.64977 4.27103 2.64977C3.38331 2.64977 2.64977 3.37383 2.64977 4.28419C2.64977 5.19454 3.38331 5.9186 4.27103 5.9186Z" fill="#FAFE18"/>
</svg>
