<svg width="53" height="52" viewBox="0 0 53 52" fill="none" xmlns="http://www.w3.org/2000/svg">
<path d="M19.4989 26.8588L30.7385 36.7497C30.8686 36.8641 31.0261 36.9428 31.1957 36.9781C31.3653 37.0133 31.5412 37.0039 31.706 36.9507C31.8709 36.8976 32.0191 36.8025 32.1362 36.6748C32.2533 36.5471 32.3352 36.3912 32.3739 36.2224L37.0756 15.7058C37.1162 15.5284 37.1077 15.3433 37.0509 15.1704C36.9941 14.9975 36.8913 14.8434 36.7533 14.7246C36.6154 14.6059 36.4477 14.527 36.2683 14.4965C36.0889 14.4661 35.9046 14.4851 35.7352 14.5517L12.6656 23.6147C12.4645 23.6937 12.2945 23.8357 12.1808 24.0194C12.0672 24.2031 12.0161 24.4187 12.0352 24.6338C12.0542 24.849 12.1425 25.0522 12.2867 25.213C12.4309 25.3739 12.6233 25.4837 12.8351 25.5261L19.4989 26.8588Z" stroke="currentColor" stroke-width="2" stroke-linecap="round" stroke-linejoin="round"/>
<path d="M19.5 26.8592L36.514 14.5713" stroke="currentColor" stroke-width="2" stroke-linecap="round" stroke-linejoin="round"/>
<path d="M25.1134 31.7987L21.2071 35.7049C21.0673 35.8448 20.8891 35.94 20.6951 35.9786C20.5011 36.0172 20.3 35.9974 20.1173 35.9217C19.9346 35.846 19.7784 35.7179 19.6685 35.5534C19.5587 35.389 19.5 35.1956 19.5 34.9978V26.8589" stroke="currentColor" stroke-width="2" stroke-linecap="round" stroke-linejoin="round"/>
<rect x="1.5" y="1" width="50" height="50" rx="25" stroke="currentColor" stroke-width="2"/>
</svg>
